<?xml version="1.0" encoding="utf-8"?>
<!-- Generator: Adobe Illustrator 23.0.0, SVG Export Plug-In . SVG Version: 6.00 Build 0)  -->
<svg version="1.1" id="Capa_1" xmlns="http://www.w3.org/2000/svg" xmlns:xlink="http://www.w3.org/1999/xlink" x="0px" y="0px"
	 viewBox="0 0 20 18" style="enable-background:new 0 0 20 18;" xml:space="preserve">
<style type="text/css">
	.st0{opacity:0.06;fill:#0F0D0B;}
	.st1{opacity:0.05;}
	.st2{fill:none;stroke:#000000;stroke-miterlimit:10;}
	.st3{fill:none;stroke:#000000;stroke-width:0.5309;stroke-miterlimit:10;}
	.st4{fill:none;stroke:#000000;stroke-width:0.8018;stroke-miterlimit:10;}
	.st5{fill:none;}
	.st6{fill:none;stroke:#000000;stroke-width:0.4495;stroke-miterlimit:10;}
	.st7{fill:none;stroke:#000000;stroke-width:0.4378;stroke-miterlimit:10;}
	.st8{fill:none;stroke:#000000;stroke-width:0.554;stroke-miterlimit:10;}
	.st9{fill:none;stroke:#000000;stroke-width:0.5749;stroke-miterlimit:10;}
	.st10{fill:none;stroke:#000000;stroke-width:0.5439;stroke-miterlimit:10;}
	.st11{fill:none;stroke:#000000;stroke-width:0.5388;stroke-miterlimit:10;}
	.st12{fill:none;stroke:#000000;stroke-width:0.2078;stroke-miterlimit:10;}
	.st13{fill:none;stroke:#000000;stroke-width:0.8335;stroke-miterlimit:10;}
	.st14{fill:none;stroke:#000000;stroke-width:0.7207;stroke-miterlimit:10;}
	.st15{fill:none;stroke:#000000;stroke-width:0.9081;stroke-miterlimit:10;}
	.st16{fill:none;stroke:#000000;stroke-width:0.25;stroke-miterlimit:10;}
	.st17{fill:none;stroke:#000000;stroke-width:0.5308;stroke-miterlimit:10;}
	.st18{fill:none;stroke:#000000;stroke-width:0.9576;stroke-miterlimit:10;}
	.st19{fill:none;stroke:#000000;stroke-width:1.2618;stroke-miterlimit:10;}
	.st20{fill:none;stroke:#BD272D;stroke-width:1.9398;stroke-miterlimit:10;}
	.st21{fill:none;stroke:#BD272D;stroke-width:1.8175;stroke-miterlimit:10;stroke-dasharray:6.8297,3.4148;}
	.st22{fill:none;stroke:#BD272D;stroke-width:1.9261;stroke-miterlimit:10;}
	.st23{fill:none;stroke:#BD272D;stroke-width:1.2119;stroke-miterlimit:10;}
	.st24{fill:none;stroke:#BD272D;stroke-width:1.1355;stroke-miterlimit:10;stroke-dasharray:4.2668,2.1334;}
	.st25{fill:none;stroke:#BD272D;stroke-width:1.2033;stroke-miterlimit:10;}
	.st26{fill:#BEBCBD;}
	.st27{fill:#FFFFFF;}
	.st28{fill:none;stroke:#FFFFFF;stroke-width:1.4112;stroke-miterlimit:10;}
	.st29{fill:none;stroke:#000000;stroke-width:0.6742;stroke-miterlimit:10;}
</style>
<g>
	<path d="M7.51,13.41c-1.18,0-2.14,0.96-2.14,2.14c0,1.18,0.96,2.14,2.14,2.14s2.14-0.96,2.14-2.14S8.69,13.41,7.51,13.41z"/>
	<path d="M16.66,15.55c0-1.18-0.96-2.14-2.14-2.14s-2.14,0.96-2.14,2.14s0.96,2.14,2.14,2.14S16.66,16.73,16.66,15.55z"/>
	<path d="M19.69,4.22c-0.08-0.05-0.17-0.07-0.26-0.07l-15.25,0L3.69,2.14C3.43,1.07,2.48,0.31,1.37,0.3L0.55,0.35H0.54
		c-0.2,0-0.38,0.12-0.44,0.31c-0.1,0.31,0.13,0.6,0.43,0.6l0.83,0c0.66,0,1.23,0.46,1.39,1.1l1.95,8.02
		c0.26,1.08,1.22,1.83,2.33,1.83h8.84c1.06,0,2-0.7,2.3-1.72l1.71-5.74C19.96,4.56,19.88,4.34,19.69,4.22z"/>
</g>
</svg>
