<?xml version="1.0" encoding="utf-8"?>
<!-- Generator: Adobe Illustrator 23.0.0, SVG Export Plug-In . SVG Version: 6.00 Build 0)  -->
<svg version="1.1" id="Capa_1" xmlns="http://www.w3.org/2000/svg" xmlns:xlink="http://www.w3.org/1999/xlink" x="0px" y="0px"
	 viewBox="0 0 137 31" style="enable-background:new 0 0 137 31;" xml:space="preserve">
<style type="text/css">
	.st0{opacity:0.06;fill:#0F0D0B;}
	.st1{opacity:0.05;}
	.st2{fill:none;stroke:#000000;stroke-miterlimit:10;}
	.st3{fill:none;stroke:#000000;stroke-width:0.5309;stroke-miterlimit:10;}
	.st4{fill:none;stroke:#000000;stroke-width:0.8018;stroke-miterlimit:10;}
	.st5{fill:none;}
	.st6{fill:none;stroke:#000000;stroke-width:0.4495;stroke-miterlimit:10;}
	.st7{fill:none;stroke:#000000;stroke-width:0.4378;stroke-miterlimit:10;}
	.st8{fill:none;stroke:#000000;stroke-width:0.554;stroke-miterlimit:10;}
	.st9{fill:none;stroke:#000000;stroke-width:0.5749;stroke-miterlimit:10;}
	.st10{fill:none;stroke:#000000;stroke-width:0.5439;stroke-miterlimit:10;}
	.st11{fill:none;stroke:#000000;stroke-width:0.5388;stroke-miterlimit:10;}
	.st12{fill:none;stroke:#000000;stroke-width:0.2078;stroke-miterlimit:10;}
	.st13{fill:none;stroke:#000000;stroke-width:0.8335;stroke-miterlimit:10;}
	.st14{fill:none;stroke:#000000;stroke-width:0.7207;stroke-miterlimit:10;}
	.st15{fill:none;stroke:#000000;stroke-width:0.9081;stroke-miterlimit:10;}
	.st16{fill:none;stroke:#000000;stroke-width:0.25;stroke-miterlimit:10;}
	.st17{fill:none;stroke:#000000;stroke-width:0.5308;stroke-miterlimit:10;}
	.st18{fill:none;stroke:#000000;stroke-width:0.9576;stroke-miterlimit:10;}
	.st19{fill:none;stroke:#000000;stroke-width:1.2618;stroke-miterlimit:10;}
	.st20{fill:none;stroke:#BE272D;stroke-width:1.9398;stroke-miterlimit:10;}
	.st21{fill:none;stroke:#BE272D;stroke-width:1.8175;stroke-miterlimit:10;stroke-dasharray:6.8297,3.4148;}
	.st22{fill:none;stroke:#BE272D;stroke-width:1.9261;stroke-miterlimit:10;}
	.st23{fill:none;stroke:#BE272D;stroke-width:1.2119;stroke-miterlimit:10;}
	.st24{fill:none;stroke:#BE272D;stroke-width:1.1355;stroke-miterlimit:10;stroke-dasharray:4.2668,2.1334;}
	.st25{fill:none;stroke:#BE272D;stroke-width:1.2033;stroke-miterlimit:10;}
	.st26{fill:#BFBDBE;}
	.st27{fill:#FFFFFF;}
	.st28{fill:none;stroke:#FFFFFF;stroke-width:1.4112;stroke-miterlimit:10;}
	.st29{fill:none;stroke:#000000;stroke-width:0.6742;stroke-miterlimit:10;}
</style>
<g>
	<path d="M30.81,0.33v29.81h-7.63V17.85l-6.08,7.1h-2.44L8.63,17.9v12.24H1V0.33h2.44l12.47,15.22L28.37,0.33H30.81z"/>
	<path d="M41.99,0.86h7.63v29.28h-7.63V0.86z"/>
	<path d="M64.04,20.2c1.73,2.31,3.55,3.77,6.52,3.77c2,0,3.02-0.71,3.02-2.13c0-1.29-0.66-1.69-2.97-2.71l-3.02-1.33
		c-4.84-2.13-7.41-4.88-7.41-8.83c0-5.19,4.26-8.65,10.25-8.65c4.84,0,8.25,2.31,10.02,5.9l-5.1,3.9C73.93,8,72.6,7.03,70.52,7.03
		c-1.6,0-2.62,0.62-2.62,1.86c0,1.06,0.62,1.64,2.53,2.4l3.37,1.42c5.1,2.13,7.5,4.7,7.5,8.83c0,5.68-4.66,9.14-10.74,9.14
		c-5.28,0-9.54-2.53-11.67-6.57L64.04,20.2z"/>
	<path d="M90.97,0.86h7.63v29.28h-7.63V0.86z"/>
	<polygon points="136,30.14 127.79,30.14 126.73,27.7 121.5,14.79 115.15,30.14 106.94,30.14 120.25,0.33 122.69,0.33 	"/>
</g>
</svg>
